# xmcd CD database file
#
# Track frame offsets:
#	150
#	11257
#	23080
#	36445
#	49950
#	62392
#	73652
#	88247
#	100022
#	109337
#	121040
#	131270
#	141652
#	152757
#	163540
#	174825
#	185802
#	197809
#
# Disc length: 2829 seconds
#
# Revision: 0
# Processed by: cddbd v1.5.2PL0 Copyright (c) Steve Scherf et al.
# Submitted via: CDex 1.51
#
DISCID=f40b0b12
DTITLE=Junior Parker - Next Time You See Me
DYEAR=2005
DGENRE=Blues
TTITLE0=Mystery Train
TTITLE1=Love My Baby
TTITLE2=Feelin' Good
TTITLE3=Fussin' And Fightin'
TTITLE4=Feelin' Bad
TTITLE5=Love My Baby
TTITLE6=Sittin' Drinkin' And Thinkin'
TTITLE7=Sittin' At The Bar
TTITLE8=Sittin' At My Window
TTITLE9=I Need Love So Bad
TTITLE10=Someone Broke This Heart Of Mine
TTITLE11=Yonder's Wall
TTITLE12=Tin Pan Alley
TTITLE13=Seven Days
TTITLE14=Sweet Home Chicago
TTITLE15=Five Long Years
TTITLE16=Next Time You See Me
TTITLE17=These Kind Of Blues
EXTD=YEAR: 2005
EXTT0=
EXTT1=
EXTT2=
EXTT3=
EXTT4=
EXTT5=
EXTT6=
EXTT7=
EXTT8=
EXTT9=
EXTT10=
EXTT11=
EXTT12=
EXTT13=
EXTT14=
EXTT15=
EXTT16=
EXTT17=
PLAYORDER=
